<svg version="1.2" xmlns="http://www.w3.org/2000/svg" viewBox="0 0 1920 1080" width="1920" height="1080">
	<style>
		.s0 { opacity: 1;fill: #16205b } 
		.s1 { opacity: 1;fill: #1e65a9 } 
		.s2 { opacity: .99;fill: #68c4e9 } 
	</style>
	<g id="Layer 1 copy">
		<path id="Path 1" fill-rule="evenodd" class="s0" d="m1136.5 219.41c3.85 0.25 8.8 1.1 11 1.89 2.2 0.78 4.77 2.5 5.71 3.81 1.51 2.13 1.79 7.46 2.5 48.69 0.77 45.17 0.84 46.3 2.79 46.69 1.1 0.22 7.17 1.3 13.5 2.4 6.33 1.11 17.35 2.95 24.5 4.1 7.15 1.14 16.6 2.74 21 3.53 4.4 0.8 10.92 1.87 14.5 2.38 3.58 0.51 12.13 1.89 19 3.06 6.88 1.17 17 3.08 22.5 4.25 5.5 1.17 10.58 2.61 11.29 3.21 0.72 0.59 1.28 1.64 1.25 2.33-0.02 0.69-0.9 2.04-1.95 3-1.04 0.96-4.98 2.73-8.75 3.93-3.76 1.19-9.54 2.69-12.84 3.33-4.43 0.86-8.75 0.89-16.5 0.1-5.78-0.58-21.53-1.96-35-3.06-13.47-1.09-30.58-2.45-38-3.02-7.42-0.57-14.17-1.04-15-1.03-1.28 0-1.46 2.28-1.2 15.75 0.29 15.47 0.34 15.83 3.25 20.5 1.62 2.61 2.95 5.99 2.94 7.5 0 1.51-0.79 3.92-1.75 5.35-0.96 1.44-3.54 4.31-5.74 6.39-2.2 2.08-9.85 8.8-17 14.95-7.15 6.14-17.95 14.93-24 19.53-6.05 4.61-17.53 12.64-25.5 17.84-7.97 5.21-15.63 10.24-17 11.17-1.37 0.93-7.67 4.63-14 8.21-6.33 3.58-18.03 9.73-26 13.67-7.97 3.95-15.85 7.94-17.5 8.87-1.65 0.94-3.79 1.83-4.75 1.99-0.96 0.15-2.99 0.9-4.5 1.66-1.51 0.76-5.9 2.6-9.75 4.08-3.85 1.49-9.81 3.79-13.25 5.12-3.44 1.33-7.71 3.22-9.5 4.19-1.79 0.98-4.49 2.56-6 3.5-1.51 0.95-2.75 2.63-2.75 3.73 0 1.1 0.79 2.39 1.75 2.86 0.96 0.47 3.33 1.15 5.25 1.5 2.1 0.39 9.71-0.38 19-1.92 8.52-1.41 16.85-2.3 18.5-1.97 1.65 0.32 4.58 1.61 6.5 2.87 2.04 1.33 4.44 4.24 5.75 6.97 1.87 3.91 2.63 4.61 4.5 4.22 1.24-0.26 4.95-0.94 8.25-1.51 3.3-0.57 8.7-1.02 12-1 4.44 0.02 7.04 0.63 10 2.36 2.35 1.37 4.72 3.84 5.75 5.98 0.96 2 1.73 4.43 1.71 5.39-0.03 0.96 0.53 2.31 1.25 2.99 0.71 0.68 5.12 1.93 9.79 2.78 4.67 0.85 9.63 1.69 11 1.88 1.38 0.18 3.17 0.59 4 0.91 0.83 0.31 7.35 1.69 14.5 3.06 7.15 1.38 19.3 3.7 27 5.17 7.7 1.46 21.65 4.2 31 6.08 9.35 1.87 17.9 3.6 19 3.83 1.1 0.24 6.28 1.18 11.5 2.11 5.22 0.92 12.65 2.31 16.5 3.08 3.85 0.77 11.95 2.3 18 3.4 6.05 1.1 11.11 2.44 11.25 2.98 0.14 0.54 0.7 0.75 1.25 0.48 0.55-0.27 9.21 1.1 19.25 3.05 10.04 1.96 22.08 4.4 26.75 5.42 4.67 1.02 13.45 2.78 19.5 3.91 6.05 1.14 12.08 2.19 13.4 2.34 1.32 0.15 2.89 1.1 3.5 2.11 0.93 1.55 0.41 2.44-3.4 5.81-2.47 2.18-8.55 5.93-13.5 8.32-4.95 2.39-13.5 5.51-19 6.93-5.5 1.43-12.47 2.6-15.5 2.61-3.03 0.01-12.25-0.87-20.5-1.95-8.25-1.07-24.67-3.1-36.5-4.5-11.83-1.39-27.35-3.21-34.5-4.03-7.15-0.82-17.72-1.97-23.5-2.55-5.78-0.58-11.4-1.32-12.5-1.64-1.1-0.32-4.03-0.73-6.5-0.92-2.47-0.18-8.78-0.8-14-1.36-5.22-0.57-12.65-1.48-16.5-2.03-3.85-0.55-13.08-1.69-20.5-2.53-7.42-0.85-21.38-2.4-31-3.45-9.62-1.06-23.35-2.62-30.5-3.48-7.15-0.86-18.17-2.23-24.5-3.04-6.33-0.81-14.42-1.76-18-2.12-6.25-0.62-6.82-0.48-15 3.66-4.67 2.37-9.17 4.43-10 4.58-0.83 0.14-4.87 1.8-9 3.67-4.12 1.88-10.42 4.56-14 5.95-3.58 1.38-10.55 3.96-15.5 5.71-4.95 1.76-14.96 4.73-22.25 6.61-7.29 1.88-17.41 3.95-22.5 4.6-7.55 0.96-10.45 0.92-15.75-0.21-5.33-1.14-7.22-2.13-10.5-5.43-2.2-2.22-4.45-4.76-5-5.65-0.88-1.41-1.99-1.48-9-0.56-5.94 0.78-9.09 0.74-12.25-0.14-2.34-0.65-5.71-2.47-7.5-4.04-1.79-1.58-4.26-5.39-5.5-8.5-1.56-3.92-2.25-7.71-2.24-12.4 0.01-4.61 0.63-8.02 1.96-10.75 1.06-2.2 3.19-4.95 4.73-6.11 1.54-1.15 5.18-3.18 8.09-4.5 2.91-1.31 5.27-2.84 5.26-3.39-0.02-0.63-2.88-0.77-7.79-0.37-4.27 0.34-11.36 1.74-15.76 3.1-4.4 1.36-11.6 3.51-16 4.77-4.4 1.26-13.4 3.98-20 6.05-6.6 2.07-15.83 4.91-20.5 6.3-4.67 1.4-13 3.9-18.5 5.56-5.5 1.66-10.34 2.81-10.75 2.55-0.41-0.25-0.86-0.08-1 0.39-0.14 0.47-4.98 2.24-10.75 3.94-5.77 1.69-16.8 4.85-24.5 7.01-7.7 2.15-18.05 4.93-23 6.16-4.95 1.24-9.67 2.48-10.5 2.78-0.83 0.29-2.4 0.67-3.5 0.84-1.1 0.17-10.1 1.94-20 3.93-9.9 1.99-19.58 3.83-21.5 4.1-1.92 0.26-4.17 0.5-5 0.52-0.83 0.02-6 0.68-11.5 1.47-5.5 0.79-12.92 1.61-16.5 1.82-3.58 0.21-13.7 0.71-22.5 1.12q-16 0.74-28-0.49c-6.6-0.67-15.82-2.33-20.5-3.67-4.81-1.39-9.97-3.63-11.88-5.17-1.86-1.49-4.34-3.98-5.5-5.53-1.4-1.87-2.1-4.24-2.07-7 0.03-2.54 1.21-6.5 3-10.08 1.62-3.25 6.14-9.55 10.04-14 3.9-4.46 11.33-11.5 16.5-15.66 5.18-4.15 12.33-9.56 15.91-12.01 3.58-2.45 9.2-6.1 12.5-8.11 3.3-2.01 7.18-4.26 8.61-4.99 1.44-0.73 7.85-6.39 14.25-12.58 6.4-6.19 15.13-13.85 19.39-17.03 4.26-3.18 10.9-7.29 14.75-9.13 3.85-1.84 11.95-5.33 18-7.75 6.05-2.43 11.56-4.17 12.25-3.88 0.69 0.3 1.25 0.09 1.25-0.46 0-0.55 0.67-0.77 1.5-0.5 0.83 0.27 1.49 0.16 1.48-0.25-0.02-0.41 2.8-1.6 6.25-2.64 3.45-1.03 9.76-2.94 14.02-4.25 4.26-1.3 8.42-2.36 9.25-2.36 0.83 0 1.73-0.45 2-1 0.27-0.55-1.19-2.01-3.25-3.23-2.06-1.23-4.2-2.44-4.75-2.69-0.55-0.25-5.73-3.31-11.5-6.8-5.77-3.49-10.61-6.33-10.75-6.31-0.14 0.02-5.09-2.83-11-6.32-5.91-3.5-20.1-11.93-31.52-18.75-11.43-6.82-23.13-13.71-26-15.31-2.88-1.6-9.06-5.22-13.73-8.05-7.23-4.37-8.55-5.58-8.83-8.09-0.28-2.5 0.18-3.2 3-4.58 1.83-0.9 4.91-2.11 6.83-2.69 1.92-0.59 8-1.76 13.5-2.61 5.5-0.85 13.83-1.56 18.5-1.56 5.46-0.01 10.82 0.67 15 1.9 3.58 1.05 12.35 3.96 19.5 6.47 7.15 2.5 17.95 6.3 24 8.44 6.05 2.13 18.88 6.7 28.5 10.15 9.63 3.45 22.9 8.22 29.5 10.6 6.6 2.38 21 7.56 32 11.52 11 3.95 23.15 8.27 34 11.99l8.5-2.06c4.67-1.13 11.88-2.97 16-4.09 4.13-1.11 16.05-4.22 26.5-6.9 10.45-2.69 26.2-6.77 35-9.08 8.8-2.31 23.42-6.14 32.5-8.51 9.08-2.37 25.95-6.65 37.5-9.51 11.55-2.86 25.73-6.98 31.5-9.17 5.77-2.19 19.73-8.02 31-12.95 11.27-4.94 31.3-13.69 44.5-19.46 13.2-5.76 28.72-12.81 34.5-15.66 7.81-3.84 11.98-6.65 16.25-10.93 3.16-3.17 5.6-6.32 5.42-7.01-0.19-0.69-1.88-1.53-3.75-1.86-1.88-0.34-8.37-2.09-14.42-3.9-6.05-1.81-11.11-3.68-11.25-4.14-0.14-0.47-0.81-0.59-1.5-0.27-0.69 0.32-5.3-0.55-10.25-1.94-4.95-1.38-14.85-4.14-22-6.12-7.15-1.99-17.73-5-23.5-6.7-5.77-1.7-11.08-3.59-11.79-4.21-0.72-0.61-1.28-1.9-1.25-2.86 0.02-0.96 1.05-2.35 2.29-3.09 1.24-0.73 6.75-2.39 22.25-6.02l15 2.22c8.25 1.22 20.85 3.09 28 4.14 7.15 1.05 18.4 2.69 25 3.64 6.6 0.94 13.06 1.75 14.35 1.79 2.04 0.06 2.6-0.75 4.12-5.93 0.97-3.3 2.97-11.17 4.45-17.5 1.47-6.32 3.31-13.98 4.09-17 0.78-3.02 3.05-12.02 5.05-20 1.99-7.97 4.48-16.19 5.53-18.25 1.05-2.06 3.37-4.86 5.16-6.22 1.79-1.36 5.5-3.39 8.25-4.52 3.94-1.61 6.49-1.95 12-1.6zm-386.75 411.72c1.79-0.07 3.25 0.1 3.25 0.37 0 0.27-3.67 6.46-8.15 13.75-4.49 7.29-10.93 17.75-14.31 23.25-3.39 5.5-8.68 13.83-11.77 18.5-3.08 4.67-8.54 12.55-12.14 17.5-3.6 4.95-11.62 14.35-17.83 20.89-7.14 7.51-15.8 15.25-23.5 21-6.72 5.01-16.39 11.2-21.5 13.75-5.12 2.56-11.55 5.54-14.3 6.64-2.75 1.09-10.17 3-16.5 4.23-8.12 1.58-13.12 2.05-17 1.6-3.02-0.36-8.2-1.52-11.5-2.58-4.23-1.36-7.27-3.2-10.29-6.23-3.22-3.23-4.55-5.54-5.36-9.3-0.87-4.05-0.75-6.23 0.61-11.5 0.93-3.58 3.19-8.75 5.04-11.5 1.84-2.75 5.86-7.36 8.93-10.25 3.06-2.89 8.16-6.89 11.32-8.9 3.16-2.02 9.58-5.55 14.25-7.87 4.67-2.31 11.42-5.12 15-6.23 3.58-1.11 9.88-2.95 14-4.09 4.13-1.13 11.33-2.73 16-3.56 4.67-0.83 12.89-1.97 18.25-2.55 5.36-0.58 12.23-1.05 20.75-1.05l4.16-7.25c2.29-3.99 6.76-11.52 9.93-16.75 3.17-5.23 8.16-13.51 11.09-18.4 3.81-6.38 6.17-9.26 8.32-10.17 1.65-0.69 6.83-1.69 11.5-2.21 4.67-0.52 9.96-1.01 11.75-1.09zm-109.25 78.48c-5.5 0.88-12.92 2.5-16.5 3.59-3.58 1.1-9.65 3.35-13.5 5.02-3.85 1.66-9.92 4.97-13.5 7.34-3.58 2.38-7.83 6.04-9.46 8.13-1.63 2.1-3.74 5.83-4.68 8.31-1.32 3.46-1.5 5.42-0.8 8.5 0.51 2.2 1.94 5.04 3.18 6.31 1.24 1.27 4.74 3.01 7.76 3.87 4.07 1.16 7.32 1.38 12.5 0.84 3.85-0.4 9.25-1.4 12-2.22 2.75-0.83 9.05-3.59 14-6.14 4.95-2.55 12.15-7.18 16-10.28 3.85-3.11 10.22-8.97 14.15-13.02 3.94-4.05 9.45-10.4 12.25-14.11 2.81-3.71 4.87-7.2 4.6-7.75-0.3-0.59-4.69-0.91-10.75-0.78-5.64 0.12-11.83 0.35-13.75 0.51-1.92 0.15-8 1-13.5 1.88z"/>
		<path id="Path 2" class="s1" d="m1155.4 252c0 8.52 0.16 11.9 0.34 7.5 0.19-4.4 0.19-11.38 0-15.5-0.18-4.13-0.34-0.53-0.34 8zm0.97 58.5c0 5.5 0.17 7.52 0.37 4.5 0.2-3.02 0.2-7.52-0.01-10-0.2-2.48-0.37 0-0.36 5.5z"/>
		<path id="Path 3" fill-rule="evenodd" class="s2" d="m1136.55 226l-0.32 9.75c-0.18 5.36-0.98 17.85-1.77 27.75-0.78 9.9-1.89 26.32-2.44 36.5-0.56 10.18-1.02 19.4-1.01 20.5 0 1.61-1.42 2.44-7.25 4.26-4 1.25-9.96 3.55-13.26 5.12-3.3 1.57-7.24 4.04-8.75 5.48-1.51 1.45-2.75 3.54-2.75 4.64 0 1.1 0.9 2.45 2 3 1.1 0.55 7.74 1.68 14.75 2.5 7.01 0.83 12.86 1.5 13 1.5 0.14 0-0.07 5.29-0.46 11.75-0.39 6.46-0.73 13.55-0.79 19.75l4-0.25c2.2-0.14 6.47-0.9 9.5-1.68 3.03-0.78 6.17-1.69 7-2.02 1.19-0.47 1.63 0.59 2.12 5.18 0.35 3.17 0.57 5.88 0.5 6.02-0.06 0.13-9.57-0.19-21.12-0.72-12.64-0.58-25.58-0.61-32.5-0.08-6.32 0.49-15.55 1.17-20.5 1.52-4.95 0.34-13.72 1.07-19.5 1.63-5.78 0.55-16.57 1.89-24 2.98-7.42 1.09-21.6 3.34-31.5 4.99-9.9 1.66-18.09 2.89-18.19 2.72-0.11-0.16 7.99-3.86 18-8.22 10-4.37 25.62-11.27 34.69-15.34 9.08-4.07 19.88-8.97 24-10.88 4.13-1.92 10.65-5.87 14.5-8.8 3.85-2.92 8.17-6.83 9.61-8.68 1.43-1.85 3.75-5.62 5.15-8.37 1.4-2.75 4.81-14.23 7.57-25.5 2.77-11.27 8.04-32.88 11.71-48 3.67-15.12 7.26-28.63 7.97-30 0.72-1.37 2.36-3.46 3.64-4.62 1.29-1.17 3.7-2.6 5.35-3.17 1.65-0.58 4.81-1.09 11.05-1.21zm-24.05 165.17c4.4-0.14 14.3 0.22 22 0.79 7.7 0.58 15.46 1.28 17.25 1.55 1.79 0.27 3.25 0.83 3.24 1.24 0 0.41-1.69 1.69-3.75 2.84-2.06 1.14-8.69 5.14-14.74 8.87-6.05 3.74-17.07 10.19-24.5 14.34-7.42 4.15-20.14 10.85-28.25 14.88-8.11 4.02-15.09 7.32-15.5 7.33-0.41 0.01-1.52-3.93-2.47-8.75-0.94-4.82-2.4-10.45-3.25-12.51-0.84-2.06-2.43-4.65-3.53-5.75-1.24-1.24-3.33-2-5.5-2-1.92 0-5.3 0.9-7.5 2-2.2 1.1-4.29 2.79-4.66 3.75-0.36 0.96 0.59 6.02 2.11 11.25 1.52 5.23 3.05 12.27 4.05 21.82l-3.5 1.53c-1.92 0.84-8 3.3-13.5 5.47-5.5 2.16-17.42 6.55-26.5 9.75-9.07 3.21-24.82 8.44-35 11.63-10.17 3.19-32.67 10.12-50 15.4-17.32 5.28-37.57 11.37-45 13.53-7.42 2.16-19.8 5.73-27.5 7.93-7.7 2.21-17.37 5.07-21.5 6.36-4.12 1.3-12 3.74-17.5 5.42-5.5 1.69-20.57 6.01-33.5 9.6-12.92 3.6-27.55 7.68-32.5 9.08-4.95 1.4-9.07 2.41-9.15 2.26-0.08-0.15-1.49-6.8-3.13-14.78-1.64-7.98-3.93-16.41-5.1-18.75-1.17-2.34-3.13-4.93-4.37-5.76-1.24-0.83-3.94-1.5-6-1.5-2.06 0.01-6.56 0.74-10 1.64-3.44 0.9-7.15 2.2-8.25 2.91-1.1 0.7-2.62 2.78-3.38 4.62-1.19 2.88-1.18 3.89 0.13 7.34 0.83 2.2 2.43 7.38 3.56 11.5 1.13 4.13 2.54 10.65 3.15 14.5 0.8 5.11 0.8 7.27 0 8-0.61 0.55-7.94 2.73-16.28 4.84-8.35 2.11-23.28 5.82-33.18 8.25-9.9 2.42-23.62 5.75-30.5 7.39-6.87 1.64-21.72 4.76-33 6.93-11.27 2.17-26.12 4.92-33 6.11-7.03 1.21-17.52 2.23-23.97 2.32-10.75 0.15-11.5 0.03-11.85-1.84-0.21-1.1-1.12-3.54-2.03-5.43-0.91-1.88-3.56-4.92-10.15-10.07l5.55-5.25c3.05-2.89 6.2-5.59 7-6 0.83-0.43 3.14 0.1 5.45 1.25 3.32 1.66 5.83 1.98 14.75 1.87 5.91-0.07 15.7-0.73 21.75-1.47 6.05-0.74 13.25-1.83 16-2.43 2.75-0.59 6.8-1.32 9-1.62 2.2-0.3 7.15-1.21 11-2.03 3.85-0.82 11.05-2.34 16-3.37 4.95-1.03 12.83-2.99 17.5-4.35 4.68-1.35 9.63-2.91 11-3.47 1.38-0.55 2.16-1.03 1.75-1.07-0.41-0.03-5.81 0.66-12 1.53-6.53 0.93-19.01 1.66-29.75 1.74-11.66 0.09-21.09-0.34-25.5-1.17-3.85-0.72-9.25-2.18-12-3.25-2.75-1.06-5.6-2.93-6.33-4.17-1.25-2.09-0.94-2.65 4.5-8.15 3.2-3.26 7.18-7.23 8.83-8.84 1.65-1.61 6.15-5.49 10-8.64 3.85-3.14 8.8-6.75 11-8.02 2.2-1.27 8.28-4.1 13.5-6.28 5.23-2.18 16.25-6.14 24.5-8.79 8.25-2.65 18.6-5.79 23-6.97 4.4-1.18 18.58-4.85 31.5-8.16 12.93-3.3 25.3-6.39 27.5-6.85 2.2-0.47 12.78-3.17 23.5-6.02 10.73-2.85 27.38-7.13 37-9.51 9.63-2.39 39.33-10.02 66-16.97 26.68-6.95 52.78-13.77 58-15.16 5.23-1.38 20.3-5.21 33.5-8.51 13.2-3.3 32.78-7.81 43.5-10.03 10.73-2.21 25.8-5.11 33.5-6.43 7.7-1.32 21.43-3.49 30.5-4.83 9.08-1.33 22.35-2.95 29.5-3.59 7.15-0.64 18.85-1.48 26-1.86 7.15-0.39 16.6-0.82 21-0.96zm-561.5 12.83c1.38-0.02 2.95 0.4 3.5 0.92 0.55 0.53 6.4 3.96 13 7.64 6.6 3.67 19.2 10.61 28 15.42 8.8 4.81 18.7 10.2 22 11.99 3.3 1.79 10.73 5.83 16.5 8.99 5.78 3.15 15.9 8.6 22.5 12.1 6.6 3.5 15.15 8.02 26 13.73l-14 3.1-9-5.1c-4.95-2.81-15.97-9.24-24.5-14.28-8.52-5.04-20.9-12.33-27.5-16.19-6.6-3.86-23.17-13.72-36.81-21.92-15.94-9.57-24.34-15.16-23.5-15.63 0.72-0.41 2.44-0.75 3.81-0.77zm502.25 13.04c1.78-0.03 3.26 0.75 4.21 2.21 0.8 1.24 2.39 5.18 3.54 8.75 1.14 3.58 2.34 8.98 3.26 17.5l-6.38 2.74c-3.51 1.51-6.47 2.63-6.58 2.5-0.11-0.13-0.85-3.61-1.65-7.74-0.79-4.12-2.17-9.98-3.06-13-0.88-3.02-1.69-6.5-1.78-7.72-0.12-1.54 0.73-2.67 2.76-3.71 1.61-0.82 4.17-1.51 5.68-1.53zm-341 96.16c1.79-0.12 4.04 0.01 5 0.29 0.96 0.28 2.38 1.75 3.15 3.26 0.77 1.51 2.17 5.67 3.11 9.25 0.94 3.58 2.44 10.94 3.35 16.36 1.04 6.28 1.28 9.96 0.64 10.14-0.55 0.16-5.5 1.68-11 3.38-5.5 1.69-10.79 3.09-11.75 3.1-1.4 0.02-1.87-1.13-2.33-5.73-0.32-3.16-1.7-9.8-3.06-14.75-1.35-4.95-2.96-10.8-3.57-13-0.6-2.2-0.81-4.79-0.45-5.75 0.37-0.96 2.35-2.48 4.41-3.36 2.06-0.89 4.88-1.82 6.25-2.08 1.38-0.25 2.61-0.55 2.75-0.66 0.14-0.12 1.71-0.32 3.5-0.45zm291.5 16.92c1.79-0.06 4.38 0.33 5.75 0.88 1.38 0.55 3.21 2.46 4.08 4.25 0.87 1.79 1.32 3.81 1 4.5-0.32 0.69-1.82 1.5-3.33 1.81-1.62 0.33-8.69-0.94-17.25-3.12-7.97-2.02-14.72-3.82-15-4.01-0.27-0.18 2.2-0.86 5.5-1.51 3.3-0.65 8.25-1.52 11-1.93 2.75-0.41 6.46-0.8 8.25-0.87zm41.5 11c2.06-0.07 4.76 0.4 6 1.04 1.24 0.64 2.8 1.88 3.47 2.75 0.67 0.88 1.23 2.83 1.25 4.34 0.02 1.96-0.47 2.76-1.72 2.77-0.96 0.01-8.61-1.45-17-3.25-8.39-1.8-15.36-3.52-15.49-3.82-0.13-0.3 4.25-1.26 9.75-2.13 5.49-0.87 11.68-1.64 13.74-1.7zm-129.58 6.88c0.73 0 1.32 0.34 1.31 0.75-0.01 0.41-4.6 3.45-10.21 6.75-5.61 3.3-14.26 7.47-19.23 9.27-4.97 1.79-11.29 4.21-14.04 5.37-2.75 1.16-8.82 3.99-13.5 6.28-4.67 2.3-10.3 5.36-12.5 6.81-2.73 1.8-5.04 4.65-7.27 8.96-1.81 3.47-3.27 6.87-3.25 7.56 0.01 0.69-1.12 1.36-2.52 1.5-1.4 0.14-2.76 0.02-3.03-0.25-0.27-0.27-0.47-2.41-0.46-4.75 0.02-2.34-0.82-5.94-1.86-8-1.05-2.06-2.73-4.52-3.75-5.45-1.02-0.94-2.95-1.84-4.28-2-1.83-0.23-3.01 0.56-4.78 3.2-1.62 2.41-2.35 4.91-2.34 8 0.02 2.64 0.96 6.36 2.28 9 1.46 2.91 3.4 5.03 5.49 6 1.77 0.83 3.24 1.84 3.25 2.25 0.01 0.41-1.1 0.75-2.48 0.75-1.37 0-3.58-1.01-4.9-2.25-1.32-1.24-3.12-4.5-4.01-7.25-0.89-2.75-1.61-6.69-1.6-8.75 0-2.06 0.71-5.21 1.57-7 0.85-1.79 2.99-4.25 4.75-5.47 1.75-1.23 7.8-4.26 13.44-6.75 5.64-2.49 14.86-6.09 20.5-7.99 5.64-1.91 17.45-5.51 26.25-8.01 8.8-2.5 20.28-5.27 25.5-6.14 5.23-0.88 9.69-1.78 9.92-1.99 0.23-0.22 1.01-0.4 1.75-0.4zm51.08 5.12c2.34-0.07 4.27 0.22 4.29 0.63 0.02 0.41-2.57 1.95-5.75 3.43-3.19 1.47-9.39 4.11-13.79 5.85-4.4 1.75-10.25 4.63-13 6.41-2.75 1.77-6.46 4.87-8.25 6.89-2.35 2.65-3.25 4.64-3.25 7.17 0 3.15 0.42 3.69 8.5 7.28l-8.5 3.23c-4.67 1.77-13.22 4.77-19 6.66-5.77 1.89-14.77 4.51-20 5.81-5.22 1.31-11.75 2.67-14.5 3.03-2.75 0.36-5.67 0.85-6.5 1.07-1.13 0.32-1.63-0.74-2.03-4.33-0.29-2.61-1.66-6.55-3.06-8.75-1.44-2.28-3.9-4.54-5.72-5.25-2.9-1.14-3.44-1.03-5.94 1.17-2.29 2.01-2.78 3.3-2.93 7.75-0.11 3.46 0.5 6.82 1.75 9.58 1.06 2.34 3.17 5.17 4.68 6.28 1.51 1.12 3.31 2.02 4 2 0.69-0.01 1.03 0.42 0.75 0.97-0.27 0.55-1.51 0.99-2.75 0.97-1.24-0.02-3.15-0.82-4.25-1.78-1.1-0.96-2.87-3.31-3.93-5.22-1.23-2.2-2.07-6.02-2.32-10.47-0.3-5.6 0-7.6 1.52-10 1.17-1.87 5.07-4.71 10.31-7.52 4.63-2.49 12.92-6.5 18.42-8.91 5.5-2.41 21.03-8.11 34.5-12.65 22.84-7.71 25.45-8.37 38.5-9.73 7.7-0.8 15.91-1.5 18.25-1.57zm-21.54 19.88c0.43 0 18.68 2.24 40.54 4.98 21.86 2.74 45.38 5.69 52.25 6.55 6.88 0.86 17.22 2.23 23 3.05 5.78 0.83 15.68 2.12 22 2.89 6.33 0.76 22.3 2.79 35.5 4.51 13.2 1.71 33.68 4.42 45.5 6.02 11.83 1.6 30.28 4.08 41 5.51 10.72 1.42 24.45 3.25 30.5 4.06 6.05 0.8 17.3 2.41 25 3.57 9.91 1.49 15.9 1.9 20.5 1.41 3.58-0.38 10.83-2.12 16.13-3.87 5.76-1.9 9.18-2.64 8.5-1.83-0.62 0.74-3.83 2.6-7.13 4.15-3.3 1.54-9.49 3.74-13.75 4.9-4.26 1.15-10.67 2.1-14.25 2.1-3.57 0-14.04-0.89-23.25-1.99-9.21-1.09-32.5-3.79-51.75-6-19.25-2.21-40.17-4.7-46.5-5.53-6.32-0.83-13.97-1.75-17-2.04-3.03-0.29-10.9-1.16-17.5-1.94-6.6-0.78-21.9-2.57-34-3.98-12.1-1.41-31.22-3.67-42.5-5.03-11.28-1.35-28.6-3.35-38.5-4.43-9.9-1.09-20.7-2.24-24-2.56-3.3-0.32-11.4-1.22-18-1.99-6.6-0.78-14.59-1.66-17.75-1.96-5.71-0.55-5.74-0.57-4.24-2.8 0.83-1.24 3.17-3.49 5.21-5 2.03-1.51 4.05-2.75 4.49-2.75z"/>
		<path id="Path 4" fill-rule="evenodd" class="s0" d="m820.24 580.99c1.24 0 3.36 0.79 4.7 1.75 1.35 0.97 3.25 3.56 4.23 5.76 0.98 2.2 1.8 6.36 1.81 9.25 0.02 4.28-0.44 5.71-2.48 7.75-1.9 1.9-3.16 2.36-5.25 1.92-1.51-0.32-3.55-1.33-4.53-2.25-0.98-0.92-2.45-3.69-3.26-6.17-0.82-2.48-1.48-6.08-1.47-8 0.01-1.92 0.91-4.96 2-6.75 1.29-2.12 2.77-3.25 4.25-3.26zm33.78 11.01c2.09 0 3.86 0.97 5.94 3.25 1.62 1.79 3.42 4.83 3.98 6.75 0.56 1.92 1.04 4.62 1.06 6 0.02 1.37-0.42 3.96-0.98 5.75-0.62 1.97-2.01 3.65-3.52 4.25-1.85 0.74-3.28 0.61-5.5-0.5-1.71-0.86-3.92-3.32-5.15-5.75-1.34-2.67-2.16-6.19-2.18-9.46-0.03-3.3 0.58-6.13 1.66-7.75 1.19-1.77 2.61-2.54 4.69-2.54zm111.68 56.37c0.19 0.07-1.58 3.47-3.93 7.56-2.35 4.08-5.85 8.71-7.77 10.27-1.92 1.57-5.08 3.25-7 3.74-1.92 0.49-6.99 1.15-19 2.06l3.31-5.75c1.82-3.16 4.04-6.88 4.93-8.25 0.88-1.38 2.66-3.07 3.94-3.77 1.27-0.69 7.46-2.33 13.75-3.62 6.29-1.3 11.58-2.31 11.77-2.24zm-56.45 1.75c4.1-0.1 4.67 0.12 4.18 1.63-0.31 0.96-6.44 11.65-13.63 23.75-7.18 12.1-15.76 26.5-19.06 32-3.3 5.5-7.07 11.91-8.37 14.25-1.43 2.56-2.27 5.55-2.12 7.5 0.23 3.03 0.53 3.27 4.25 3.55 2.85 0.21 5.72-0.55 10-2.65 3.3-1.63 8.64-5.36 11.86-8.3 3.23-2.94 7.05-7.45 8.5-10.03 1.45-2.57 3.09-4.37 3.64-4.01 0.59 0.4 0.69 0.16 0.25-0.57-0.42-0.69 0.08-2.46 1.11-3.99 1.03-1.51 3.9-6.13 6.39-10.25 2.82-4.69 5.4-7.79 6.88-8.27 1.3-0.43 7.01-1.1 22.98-2.23l-6.19 10.5c-3.41 5.77-7.64 12.75-9.4 15.5-1.77 2.75-4.85 8.04-6.86 11.75-2.02 3.71-3.66 7.87-3.66 9.25 0 1.59 0.82 2.92 2.25 3.64 1.82 0.93 3.41 0.72 8.25-1.04 3.3-1.2 8.02-3.58 10.5-5.3 2.48-1.71 5.99-4.5 7.81-6.21 1.81-1.7 4.55-5.11 6.09-7.59 1.53-2.48 5.66-9.39 9.19-15.36 3.53-5.97 6.86-11.24 7.41-11.72 0.55-0.47 4.83-1.36 9.5-1.96 4.67-0.6 9.72-0.95 13.94-0.46l-5.47 9.25c-3.01 5.09-5.25 9.59-4.97 10 0.27 0.41 2.63-1.1 5.25-3.37 2.61-2.26 7.9-6.07 11.75-8.47 3.85-2.39 7.23-4.59 7.5-4.88 0.27-0.29 1.4-0.69 2.5-0.88 1.1-0.19 2.23-0.66 2.5-1.03 0.27-0.37 3.42-0.82 7-0.99 5.16-0.25 6.95 0.07 8.71 1.53 1.21 1.01 2.45 3.08 2.75 4.59 0.3 1.53 0.1 2.75-0.46 2.75-0.55 0-0.71 0.79-0.36 1.75 0.41 1.11-0.91 4.47-3.64 9.25-2.37 4.12-6.14 10.32-8.4 13.76-2.25 3.45-4.33 6.26-4.6 6.25-0.27-0.01-0.5 2.13-0.5 4.74 0 4.55 0.12 4.76 3 5.02 1.89 0.16 4.94-0.85 8.25-2.75 4.73-2.72 5.67-3.87 9.5-11.7 2.79-5.69 6.14-10.62 9.75-14.33 3.03-3.11 8.87-7.89 13-10.61 4.12-2.73 10.65-6.25 14.5-7.82 5.6-2.29 8.89-2.93 16.5-3.21 5.22-0.19 10.96 0.1 12.75 0.65 1.79 0.55 4.17 2.24 5.28 3.75 1.12 1.51 2.02 4.21 2 6-0.01 1.79-0.64 4.71-1.38 6.5-0.75 1.79-3.56 5.26-6.25 7.71-2.74 2.49-8.87 6.32-13.9 8.68-4.95 2.33-11.7 4.85-15 5.62-3.3 0.77-6.79 1.25-7.75 1.07-0.96-0.18-1.75 0.12-1.75 0.67 0 0.55-1.13 1.23-2.5 1.5-1.87 0.37-2.5 1.13-2.5 3 0 1.37 0.9 3.4 2 4.5 1.67 1.67 3.33 2 10 2 5.56 0 9.91-0.65 14.25-2.14 3.44-1.18 8.84-3.43 12-5 3.16-1.57 9.01-5.26 13-8.19 5.94-4.36 8.34-7.03 13.26-14.75 3.31-5.18 6.68-10.7 7.5-12.26 0.82-1.56 2.39-3.66 3.49-4.68 1.47-1.34 4.8-2.13 12.5-2.93 5.78-0.6 10.72-0.86 11-0.56 0.28 0.29-0.17 1.76-1 3.26-0.83 1.49-3.44 5.65-5.82 9.23-2.37 3.59-3.84 6.63-3.25 6.77 0.59 0.14 2.76-1.36 4.82-3.32 2.06-1.96 6.34-5.34 9.5-7.5 3.16-2.16 7.66-4.6 10-5.42 2.34-0.81 6.28-1.5 8.75-1.52 3.57-0.03 5.01 0.49 7 2.57 1.95 2.03 2.5 3.65 2.5 7.35 0 3.68-0.68 5.7-3 8.96-1.65 2.31-3.56 4.41-4.25 4.67-0.69 0.25-2.79-1.23-4.67-3.29-3.4-3.72-3.48-3.75-11.25-3.75-7.36 0-8.18 0.23-13.58 3.75-3.16 2.06-8.25 6.79-11.3 10.5-3.05 3.71-7.16 9.67-9.12 13.25-1.96 3.58-4.75 8.22-6.2 10.32-2.03 2.95-3.77 4.15-7.63 5.26-2.75 0.79-8.26 1.44-19.5 1.42l1.86-2.75c1.02-1.51 3.16-5.48 4.75-8.81 1.59-3.33 3.56-6.83 4.39-7.77 0.83-0.94 1.28-1.95 1-2.23-0.28-0.29-3.88 1.86-8 4.77-4.13 2.91-11.11 7.03-15.5 9.17-4.4 2.13-11.6 4.9-16 6.15-4.4 1.26-10.92 2.6-14.5 2.98-3.77 0.41-8.91 0.24-12.25-0.4-4.41-0.85-6.67-1.98-9.72-4.86-2.28-2.16-3.98-4.7-4-6-0.02-1.24-0.25-2.25-0.53-2.25-0.28 0-1.96 1.07-3.75 2.39-1.79 1.31-5.5 3.5-8.25 4.87-2.75 1.36-7.92 3.21-11.5 4.1-3.58 0.89-7.63 1.64-9 1.65-1.38 0.01-3.96-0.43-5.75-0.99-1.79-0.56-3.7-1.92-4.25-3.02-0.55-1.1-1.01-3.91-1.02-6.25-0.02-2.56 0.91-6.04 2.33-8.75 1.29-2.48 3.93-6.75 5.86-9.5 1.93-2.75 4.49-6.91 5.67-9.25 1.19-2.34 2.16-5.15 2.16-6.25 0-1.72-0.6-1.97-4.25-1.8-2.34 0.11-4.48 0.45-4.75 0.75-0.27 0.31-3.15 2.58-6.38 5.05-3.23 2.48-8.06 7.42-10.73 11-2.66 3.58-6.32 9.11-8.12 12.3-1.8 3.19-4.42 7.46-5.83 9.5-2.06 2.97-3.58 3.95-7.75 4.95-2.86 0.69-8.11 1.25-11.69 1.25-3.58 0-6.49-0.34-6.47-0.75 0.02-0.41 1.01-2.33 2.2-4.25 1.19-1.92 2.41-3.73 2.72-4 0.3-0.27 0.63-0.95 0.73-1.5 0.09-0.55 0.53-1.9 0.97-3 0.65-1.62-0.14-1.35-4.17 1.46-2.74 1.9-7.9 4.9-11.48 6.67-3.58 1.77-9.42 3.97-13 4.89-4.42 1.13-8.1 1.45-11.5 0.99-2.75-0.37-5.79-1.09-6.75-1.59-0.96-0.51-2.47-2.38-3.36-4.17-0.88-1.79-1.44-4.25-1.25-5.48 0.2-1.23 0.02-2.24-0.39-2.25-0.41-0.01-2.66 1.28-5 2.86-2.34 1.58-7.17 4.12-10.75 5.64-3.58 1.51-8.75 3.36-11.5 4.11-2.75 0.74-6.69 1.35-8.75 1.36-2.06 0-5.32-0.78-7.24-1.74-1.91-0.96-3.94-2.76-4.5-4-0.55-1.24-1.01-4.05-1.01-10.25l-4.75 3.22c-2.61 1.77-7.34 4.47-10.5 6-3.16 1.53-9.24 3.68-13.5 4.79-4.26 1.1-9.21 2-11 2-1.79-0.01-4.71-0.6-6.5-1.32-1.79-0.72-4.04-2.41-5.01-3.75-0.96-1.34-1.76-4.02-1.77-5.94-0.01-1.92 0.67-5.41 1.51-7.75 0.84-2.34 1.29-4.25 1.02-4.25-0.27 0-3.31 1.98-6.75 4.4-3.44 2.42-9.85 6.22-14.25 8.45-4.4 2.23-12.27 5.51-17.5 7.29-8.19 2.79-10.88 3.24-19.5 3.25-8.38 0.02-10.69-0.34-14.25-2.19-2.38-1.23-4.91-3.52-5.75-5.2-0.83-1.65-1.5-5.25-1.5-8 0-2.75 0.81-7.14 1.8-9.75 0.98-2.61 3.43-7.23 5.43-10.25 2-3.02 5.8-7.67 8.45-10.33 2.65-2.66 7.74-6.78 11.32-9.16 3.58-2.39 9.65-5.57 13.5-7.08 6.03-2.36 8.52-2.75 18-2.83 9.87-0.09 11.33 0.13 14.25 2.15 2.35 1.63 3.42 3.29 3.87 6 0.34 2.06 0.15 5.33-0.44 7.25-0.61 2.02-3.31 5.66-6.37 8.59-2.92 2.8-7.67 6.29-10.56 7.75-2.89 1.46-8.51 3.74-12.5 5.05-3.99 1.32-9.84 2.89-13 3.5-4.03 0.78-6.05 1.71-6.75 3.11-0.69 1.38-0.64 2.7 0.15 4.25 0.63 1.24 1.64 2.58 2.25 2.98 0.6 0.41 4.25 0.76 8.1 0.78 4.39 0.02 9.61-0.76 14-2.1 3.85-1.18 9.02-3.07 11.5-4.21 2.48-1.14 6.98-3.74 10-5.78 3.02-2.05 7.3-5.33 9.5-7.3 2.2-1.96 4.79-3.69 5.74-3.85 1.04-0.16 4.35-4.75 14.49-22.27l-12.81-1 2.79-4.26c2.24-3.43 3.38-4.26 5.79-4.29 1.65-0.01 4.8-0.28 7-0.59 2.2-0.32 4.34-1.2 4.75-1.97 0.41-0.76 0.71-1.73 0.66-2.14-0.04-0.41 0.33-0.98 0.84-1.25 0.51-0.27 2.11-2.52 3.56-5 1.46-2.48 3.67-5.78 4.92-7.35 2.19-2.75 2.68-2.87 13.7-3.5 11.21-0.64 11.4-0.61 10.35 1.35-0.59 1.1-3.37 5.71-6.18 10.25-2.8 4.54-5.1 8.7-5.1 9.25 0 0.58 3.33 1 8 1 7.33 0 7.92 0.15 7.02 1.75-0.54 0.96-1.89 2.76-3 4-1.66 1.84-3.42 2.35-9.77 2.81-6.41 0.46-8.04 0.94-9.42 2.75-0.92 1.2-1.48 2.53-1.25 2.94 0.23 0.41 0.08 0.74-0.33 0.72-0.41-0.01-1.31 1-1.99 2.25-0.69 1.25-2.04 3.63-3 5.28-0.97 1.66-4.58 7.51-8.03 13-5.34 8.53-6.22 10.59-6 14 0.27 3.98 0.29 4 4.77 4.3 3.52 0.24 6.03-0.46 11.5-3.17 3.85-1.91 9.02-5.25 11.5-7.42 2.72-2.38 6.97-8.15 10.75-14.58 3.44-5.85 6.7-10.63 7.25-10.63 0.55 0 0.82-0.34 0.6-0.75-0.21-0.41 1.92-4.67 4.75-9.47 2.83-4.79 7.63-12.88 10.65-17.97 3.02-5.09 6.06-9.83 6.75-10.53 0.69-0.71 1.2-1.62 1.14-2.03-0.05-0.41 0.96-1.54 2.25-2.51 1.3-0.96 5.06-2.14 8.36-2.62 3.3-0.48 8.14-0.93 10.75-1zm168.25 43.49c-2.2 1.7-5.63 5.29-7.62 7.99-1.99 2.69-4.3 6.25-5.12 7.9-0.83 1.65-1.79 4.01-2.13 5.25-0.45 1.61-0.2 2.25 0.87 2.25 0.83 0 4.54-1.61 8.25-3.58 3.71-1.97 8.52-5.01 10.69-6.75 2.17-1.74 5.21-5.19 6.77-7.67 1.55-2.48 2.84-5.5 2.86-6.71 0.03-1.23-0.81-2.64-1.88-3.16-1.25-0.61-3.09-0.53-5.3 0.23-1.87 0.64-5.19 2.56-7.39 4.25zm-325.02 5.44c-1.7 2.45-4.07 6.03-5.26 7.95-1.18 1.92-2.62 4.96-3.19 6.75-0.85 2.68-0.77 3.25 0.47 3.25 0.83 0 3.19-0.78 5.25-1.72 2.06-0.95 5.77-3.04 8.25-4.65 2.47-1.6 6-4.32 7.84-6.02 1.83-1.71 3.92-4.24 4.64-5.61 0.72-1.38 1.41-3.63 1.53-5 0.11-1.38 0.16-3.06 0.1-3.75-0.06-0.72-1.49-1.25-3.36-1.25-1.79 0-5.49 1.26-8.21 2.8-2.84 1.6-6.28 4.69-8.06 7.25z"/>
		<path id="Path 5" fill-rule="evenodd" class="s1" d="m1143.5 227c1.38 0 3.17 0.68 4 1.5 1.21 1.21 1.5 4.59 1.5 17.25 0 8.66 0.34 28.84 1.5 73.95l-7.5 0.68c-4.13 0.37-7.64 0.55-7.81 0.4-0.17-0.15 0.17-8.83 0.75-19.28 0.59-10.45 1.75-29.8 2.59-43 0.83-13.2 1.69-25.13 1.91-26.5 0.22-1.38 0.43-3.06 0.48-3.75 0.04-0.69 1.2-1.25 2.58-1.25zm-133.5 79.44c5.77 0.26 14.55 1.16 19.5 2.01 4.95 0.85 15.75 2.44 24 3.54 8.25 1.1 19.28 2.73 24.5 3.61 5.22 0.88 9.72 1.8 10 2.03 0.28 0.24-0.3 3.45-1.28 7.15-0.98 3.7-2.11 7.06-2.5 7.48-0.4 0.43-12.19-2.4-26.22-6.27-14.03-3.87-29.55-8.13-34.5-9.45-4.95-1.33-13.65-3.68-19.34-5.23-10-2.72-10.25-2.85-7.5-4.08 1.96-0.87 6.09-1.12 13.34-0.79zm142.5 20.09c3.3 0.19 9.37 1.02 13.5 1.84 4.12 0.82 20.55 3.58 36.5 6.13 15.95 2.55 34.63 5.7 41.5 7.01 6.87 1.3 15.81 2.95 19.86 3.68 4.05 0.72 7.51 1.54 7.69 1.81 0.18 0.27-2.24 1.14-5.36 1.92-3.13 0.78-9.29 1.34-13.69 1.24-4.4-0.1-13.17-0.82-19.5-1.61-6.33-0.78-15.1-1.69-19.5-2.01-4.4-0.32-16.1-1.24-26-2.05-9.9-0.81-28.13-2.15-40.5-2.98-12.38-0.83-25.7-2.03-36.73-3.83l5.11-2.75c2.82-1.51 9.62-3.89 15.12-5.29 5.5-1.4 11.35-2.75 13-3 1.65-0.25 5.7-0.3 9-0.11zm-19.34 21.39l16.34 0.58 0.63 21-2.81 1.2c-1.55 0.66-4.62 1.67-6.82 2.24-2.2 0.58-5.24 1.05-9.5 1.06l0.55-9.75c0.3-5.36 0.78-11.23 1.08-13.04zm-554.66 52.19c3.3-0.06 8.92 0.74 12.5 1.78 3.57 1.05 13.02 4.22 21 7.06 7.97 2.84 20.8 7.36 28.5 10.06 7.7 2.7 19.17 6.77 25.5 9.06 6.32 2.29 16.45 5.94 22.5 8.1 6.05 2.17 18.42 6.57 27.5 9.79 9.07 3.21 19.65 7.01 23.5 8.44 3.85 1.43 7.11 2.83 7.25 3.1 0.14 0.28-1.21 0.96-3 1.52-1.79 0.57-13.38 3.49-25.75 6.51-12.38 3.01-25.43 6.33-35.5 9.27l-7-3.69c-3.85-2.03-12.4-6.55-19-10.05-6.6-3.5-16.73-8.95-22.5-12.1-5.78-3.16-13.2-7.2-16.5-8.99-3.3-1.79-13.2-7.19-22-11.99-8.8-4.81-21.4-11.78-28-15.49-6.6-3.71-12.9-7.27-14-7.91-1.7-0.99-0.65-1.36 7-2.45 4.95-0.7 9.67-1.42 10.5-1.59 0.82-0.17 4.2-0.36 7.5-0.43zm385 109.07c0.55-0.08 1.67 0.28 2.5 0.81 1.26 0.8 1.11 1.23-0.97 2.73-1.36 0.98-3.72 3.13-5.25 4.78-1.72 1.87-2.78 4.13-2.8 6-0.02 1.99 0.91 3.91 2.75 5.69 1.52 1.47 4.01 3.16 5.52 3.75 1.51 0.58 4.89 1.08 7.5 1.1 2.61 0.03 12.17 1.99 21.25 4.35 11.64 3.04 15.84 4.5 14.25 4.96-1.24 0.36-2.25 1.1-2.25 1.65 0 0.55 2.25 1 5 1 2.75 0 6.24-0.46 7.75-1.03 1.51-0.57 2.97-0.66 3.25-0.2 0.27 0.46 7.25 2.28 15.5 4.06 8.25 1.77 15.79 3.21 16.75 3.2 0.96-0.02 1.91-0.82 2.11-1.78 0.2-0.96 0.24-0.63 0.07 0.75-0.16 1.37-0.55 3.29-0.86 4.25-0.43 1.33 0.21 1.97 2.68 2.68 1.79 0.51 7.97 1.84 13.75 2.97 5.77 1.12 19.5 3.82 30.5 5.99 11 2.17 23.15 4.45 27 5.06 3.85 0.61 12.17 2.21 18.5 3.55 6.32 1.34 21.17 4.25 33 6.47 11.82 2.21 26.9 5.16 33.5 6.54 6.6 1.38 20.1 4.12 30 6.09 9.9 1.97 27.67 5.56 39.5 7.97 11.82 2.41 21.61 4.84 21.75 5.41 0.14 0.56 0.7 0.79 1.25 0.52 0.55-0.28 1-0.05 1 0.5 0 0.55-0.68 0.77-1.5 0.5-0.83-0.28-5.66 0.86-10.75 2.52-5.09 1.67-11.95 3.3-15.25 3.62-3.9 0.39-10.9-0.14-20-1.5-7.7-1.16-18.95-2.77-25-3.57-6.05-0.81-19.78-2.64-30.5-4.06-10.73-1.43-29.18-3.91-41-5.51-11.83-1.6-32.3-4.31-45.5-6.03-13.2-1.71-29.18-3.74-35.5-4.5-6.33-0.77-16.23-2.06-22-2.89-5.78-0.82-16.13-2.19-23-3.05-6.88-0.86-28.7-3.58-48.5-6.05-19.8-2.46-37.69-4.7-39.75-4.98-2.06-0.27-3.58-0.84-3.36-1.25 0.21-0.41 4.26-3.34 9-6.5 4.73-3.16 8.4-6.09 8.14-6.5-0.25-0.41 1.34-1.65 3.54-2.75 2.19-1.1 3.98-2.34 3.96-2.75-0.02-0.41-1.04-0.75-2.28-0.75-1.24-0.01-9.45 0.69-18.25 1.54-8.8 0.85-17.24 1.97-18.75 2.5q-2.74 0.95-2.25-0.04c0.29-0.59-1.25-1-3.75-1-2.34 0-8.3 0.7-13.25 1.54-4.95 0.85-9.45 1.39-10 1.2-0.55-0.19 2.48-2.35 6.74-4.79 4.25-2.45 7.74-4.79 7.75-5.2 0-0.41-1-0.55-2.24-0.3-1.24 0.25-6.08 1.14-10.75 1.97-7.38 1.32-9.23 1.34-14 0.12-4.7-1.19-6.66-1.19-13.5 0-4.4 0.76-13.4 3.18-20 5.37-6.6 2.19-13.58 4.66-15.5 5.49-2.63 1.14-4.37 1.28-7 0.55-1.93-0.53-7.33-1.01-12-1.06-4.68-0.06-9.01-0.39-9.63-0.75-0.73-0.42-0.82-1.42-0.25-2.89 0.48-1.24 3.92-4.48 7.63-7.21 3.71-2.73 10.57-6.86 15.25-9.17 4.67-2.31 13.22-5.96 19-8.1 5.77-2.14 16.35-5.68 23.5-7.88 7.15-2.2 18.17-5.11 24.5-6.48 6.32-1.36 16.67-3.33 23-4.36 6.32-1.04 15.55-2.38 20.5-2.98 4.95-0.61 10.8-1.24 13-1.42 2.2-0.17 4.45-0.38 5-0.47zm-16.99 82.28c6.23 0.57 11.57 1.26 11.87 1.54 0.3 0.27-4.72 2.83-11.16 5.68-6.45 2.86-15.55 6.75-20.22 8.65-4.68 1.9-12.33 4.63-17 6.07-4.68 1.43-14.8 4.21-22.5 6.18-9.85 2.51-16.23 3.58-21.5 3.6-4.13 0.01-8.63-0.45-10-1.02-2.43-1-2.44-1.04-0.25-1.1 1.24-0.03 2.47-0.74 2.75-1.56 0.27-0.83 1.17-1.5 2-1.5 0.82 0 2.17-1.58 3-3.5 0.94-2.2 2.34-3.66 3.75-3.92 1.24-0.23 6.07-1.11 10.75-1.96 4.67-0.85 13.9-3.11 20.5-5.03 6.6-1.92 16.72-5.24 22.5-7.37 5.77-2.14 11.33-4.32 12.35-4.85 1.19-0.61 5.92-0.58 13.16 0.09zm-112.75 9.74c3.02-0.21 3.17-0.04 3.54 4.04 0.21 2.34 0.23 4.6 0.04 5.01-0.19 0.41-3.83 0.71-8.09 0.67-4.26-0.04-7.08-0.35-6.25-0.68 0.82-0.34 2.96-2.1 4.75-3.92 1.79-1.83 3.16-3.67 3.05-4.11-0.11-0.43 1.22-0.88 2.96-1.01z"/>
		<path id="Path 6" class="s0" d="m1014 443.2c-0.85 0.72-1.32 2.8-1.21 5.25 0.11 2.23 0.87 5.06 1.7 6.3 0.83 1.24 2.3 2.26 3.26 2.28 0.96 0.02 2.53-0.77 3.47-1.75 0.95-0.98 1.74-3.35 1.76-5.28 0.02-1.92-0.64-4.51-1.47-5.75-0.84-1.24-2.54-2.25-3.81-2.25-1.27 0-2.93 0.54-3.7 1.2zm-23.64 8.55c-1.16 1.9-1.46 3.68-0.98 5.75 0.39 1.65 1.47 3.8 2.41 4.78 0.94 0.98 2.41 1.77 3.26 1.75 0.85-0.02 2.1-0.59 2.77-1.28 0.67-0.69 1.21-2.94 1.2-5-0.01-2.06-0.58-4.89-1.27-6.28-0.79-1.59-2.07-2.52-3.48-2.5-1.34 0.02-2.9 1.13-3.91 2.78zm-23.05 4.89c-0.66 0.27-1.68 1.92-2.27 3.67-0.81 2.41-0.74 4.17 0.29 7.19 1.02 3 1.96 4.07 3.77 4.29 1.32 0.16 3.2-0.52 4.18-1.5 1-1 1.77-3.22 1.75-5.04-0.02-1.79-0.7-4.6-1.53-6.25-0.85-1.7-2.26-2.97-3.25-2.92-0.96 0.04-2.29 0.3-2.94 0.56zm-25.74 7.86c-0.86 0.82-1.8 2.85-2.07 4.5-0.29 1.75 0.23 4.56 1.25 6.75 1.03 2.2 2.58 3.87 3.75 4.05 1.1 0.17 2.8-0.51 3.78-1.5 1.11-1.12 1.79-3.31 1.79-5.8 0-2.46-0.79-5.06-2.04-6.75-1.11-1.51-2.67-2.75-3.46-2.75-0.78 0-2.13 0.68-3 1.5zm-25.18 7.29c-0.61 0.41-1.63 1.98-2.25 3.48-0.78 1.86-0.84 3.93-0.21 6.48 0.52 2.06 1.64 4.31 2.5 5 0.86 0.69 2.7 1.02 4.07 0.75 1.61-0.32 2.82-1.48 3.41-3.25 0.54-1.65 0.54-4.35-0.01-6.75-0.5-2.2-1.47-4.58-2.15-5.29-0.69-0.72-1.92-1.27-2.75-1.24-0.83 0.03-2 0.4-2.61 0.82zm-27.53 8.86c-0.75 0.91-1.33 3.05-1.3 4.75 0.04 1.71 0.38 4.34 0.75 5.85 0.44 1.74 1.7 3.12 3.44 3.77 2.32 0.86 3.1 0.67 5.03-1.25 1.45-1.45 2.26-3.45 2.25-5.52-0.02-1.79-0.7-4.6-1.53-6.25-1.15-2.29-2.18-3-4.39-3-1.59 0-3.5 0.74-4.25 1.65zm-27.46 8.42c-1.56 1.71-1.77 2.91-1.19 6.75 0.4 2.58 1.52 5.48 2.5 6.46 0.99 0.98 2.69 1.79 3.79 1.8 1.1 0 2.55-0.57 3.23-1.29 0.68-0.71 1.51-2.86 1.85-4.79 0.4-2.25 0.05-4.84-0.98-7.25-1.31-3.08-2.11-3.75-4.45-3.75-1.61 0-3.68 0.9-4.75 2.07zm-26.95 8.15c-0.9 1.22-1.6 3.7-1.55 5.5 0.06 1.81 0.71 4.52 1.47 6.03 0.75 1.51 2.21 3.05 3.25 3.42 1.03 0.36 2.78 0.09 3.88-0.6 1.1-0.69 2.34-2.46 2.75-3.92 0.41-1.46 0.31-4.56-0.23-6.9-0.54-2.34-1.56-4.58-2.25-4.98-0.7-0.41-2.26-0.75-3.47-0.75-1.21-0.01-2.94 0.98-3.85 2.2zm-27.49 8.41c-1.19 1.45-2.12 3.25-2.06 4 0.05 0.76 0.89 3.24 1.85 5.52 1.09 2.6 2.69 4.5 4.25 5.07 2.11 0.77 2.87 0.47 4.87-1.9 1.97-2.35 2.25-3.49 1.7-6.82-0.37-2.2-1.32-5.01-2.12-6.25-0.85-1.32-2.46-2.25-3.88-2.25-1.42 0-3.35 1.1-4.61 2.63zm-240.49 31.37c-5.34 5.36-5.81 6.16-4.47 7.55 0.83 0.85 3.52 1.79 6 2.07 4.5 0.52 4.5 0.51 9-5.3 2.48-3.2 4.61-6.16 4.75-6.57 0.14-0.41-1.68-1.42-4.04-2.25-2.36-0.83-4.51-1.5-4.78-1.5-0.27 0-3.18 2.7-6.46 6zm66.53-4.2c-2.48 0.18-4.84 0.64-5.26 1.01-0.42 0.38-0.03 3.61 0.86 7.19 0.89 3.58 1.68 6.63 1.76 6.79 0.08 0.16 1.94-0.13 4.14-0.65 2.2-0.52 5.24-1.21 6.75-1.54 1.51-0.33 2.75-1.27 2.75-2.1 0-0.83-0.79-3.36-1.75-5.64-0.96-2.27-2.42-4.41-3.25-4.76-0.83-0.34-3.52-0.47-6-0.3zm-15.08 2c-1.97 0.17-4.02 0.85-4.55 1.51-0.53 0.65-1.48 3.21-2.1 5.69-0.62 2.48-1.5 5.34-1.95 6.36-0.77 1.75-0.41 1.82 5.68 1.19 3.58-0.37 7.51-0.87 8.75-1.11 2.25-0.44 2.25-0.45 0.7-6.69-0.85-3.44-1.86-6.48-2.25-6.76-0.38-0.28-2.31-0.37-4.28-0.19zm-32.5 2.39c-1.14 1.27-3.49 4.22-5.24 6.56-1.75 2.34-3.07 4.45-2.93 4.69 0.14 0.25 5.09 0.92 11 1.5 6.37 0.63 11.67 0.7 13 0.18q2.25-0.89 5-7.5l2.75-6.62c-13.56-0.02-18.41-0.27-19.51-0.57-1.33-0.36-2.72 0.24-4.07 1.76z"/>
	</g>
</svg>